<?xml version="1.0" encoding="UTF-8" standalone="no"?>
<!-- Created with Inkscape (http://www.inkscape.org/) -->
<svg id="svg5552" xmlns:rdf="http://www.w3.org/1999/02/22-rdf-syntax-ns#" xmlns="http://www.w3.org/2000/svg" height="39.039" width="134.72" version="1.1" xmlns:cc="http://creativecommons.org/ns#" xmlns:xlink="http://www.w3.org/1999/xlink" viewBox="0 0 134.72024 39.039445" xmlns:dc="http://purl.org/dc/elements/1.1/">
 <defs id="defs5554">
  <linearGradient id="linearGradient11357-0-1-4" y2="310.45" gradientUnits="userSpaceOnUse" x2="216.98" y1="312.06" x1="160.55">
   <stop id="stop4162" stop-color="#000" offset="0"/>
   <stop id="stop4164" stop-color="#000" stop-opacity="0" offset="1"/>
  </linearGradient>
 </defs>
 <metadata id="metadata5557">
  <rdf:RDF>
   <cc:Work rdf:about="">
    <dc:format>image/svg+xml</dc:format>
    <dc:type rdf:resource="http://purl.org/dc/dcmitype/StillImage"/>
    <dc:title/>
   </cc:Work>
  </rdf:RDF>
 </metadata>
 <g id="layer1" fill="#236aaa" transform="translate(-155.51141,-98.542382)">
  <g id="flowRoot4136-1-0-7-3-0-8-0-1-7-7-7" style="writing-mode:lr-tb;letter-spacing:0px;text-anchor:start;word-spacing:0px;text-align:start;" font-weight="normal" fill-opacity="0.80441643" transform="matrix(0.4,0,0,0.4,127.6911,47.272158)" line-height="125%" font-stretch="normal" font-size="70px" font-variant="normal" font-style="normal" font-family="Browallia New">
   <path id="path3024" d="m82.051,186.98,4.1016-0.37597c0.319,2.6204,1.3672,4.5345,3.1445,5.7422s3.942,1.8115,6.4941,1.8115c2.7116,0,4.7453-0.54118,6.1011-1.6235,1.3558-1.0824,2.0337-2.3983,2.0337-3.9478-0.00002-1.071-0.33612-1.9995-1.0083-2.7856-0.67222-0.78612-1.5894-1.39-2.7515-1.8115-1.1621-0.42154-3.2357-0.97411-6.2207-1.6577-2.2103-0.50128-4.0674-1.0823-5.5713-1.7432-1.5039-0.66079-2.723-1.6178-3.6572-2.8711-0.93425-1.2532-1.4014-2.7571-1.4014-4.5117-0.000004-1.8685,0.45003-3.4521,1.3501-4.751,0.90006-1.2988,2.2502-2.3299,4.0503-3.0933,1.8001-0.76331,3.8281-1.145,6.084-1.145,3.942,0.00003,6.9442,0.9001,9.0063,2.7002,2.0622,1.8002,3.1616,4.1586,3.2983,7.0752l-4.1357,0.30762c-0.45575-4.1927-3.1104-6.289-7.9639-6.2891-5.013,0.00002-7.5195,1.6406-7.5195,4.9219-0.000008,0.95705,0.30761,1.7831,0.92285,2.478,0.61522,0.69501,1.4071,1.2134,2.3755,1.5552,0.96841,0.34182,2.4666,0.74058,4.4946,1.1963,3.6002,0.82033,6.0384,1.5267,7.3144,2.1191,1.276,0.59247,2.3128,1.2818,3.1104,2.0679,0.79749,0.78615,1.3956,1.6691,1.7944,2.6489,0.39873,0.97983,0.59812,2.0622,0.59814,3.2471-0.00002,3.0534-1.1735,5.446-3.5205,7.1777-2.347,1.7318-5.2067,2.5977-8.5791,2.5977-4.5117,0-7.9297-1.014-10.254-3.042-2.3242-2.028-3.5547-4.694-3.6914-7.998z"/>
   <path id="path3026" d="m113.5,197.47,0-23.687,3.5889,0,0,3.3154c1.6634-2.5748,4.056-3.8623,7.1777-3.8623,3.4863,0.00002,5.7194,1.3786,6.6992,4.1357,1.8913-2.7571,4.3294-4.1357,7.3145-4.1357,4.899,0.00002,7.3486,2.6546,7.3486,7.9639v16.27h-3.999v-14.937c-0.00003-3.8737-1.4128-5.8105-4.2383-5.8105-3.8509,0.00002-5.7764,2.3242-5.7764,6.9726v13.774h-4.0332v-15.381c-0.00002-3.5775-1.4014-5.3662-4.2041-5.3662-1.2988,0.00002-2.3812,0.29054-3.2471,0.87158-0.86589,0.58107-1.5153,1.4526-1.9482,2.6147-0.43295,1.1621-0.64942,2.8142-0.64941,4.9561v12.305z"/>
   <path id="path3028" d="m167.12,194.53c-2.7344,2.3242-5.651,3.4863-8.75,3.4863-2.4609,0-4.4263-0.60954-5.896-1.8286s-2.2046-2.8768-2.2046-4.9732c0-1.2077,0.26204-2.29,0.78613-3.2471,0.52409-0.95702,1.39-1.8058,2.5977-2.5464,1.2077-0.74055,3.1901-1.2817,5.9473-1.6235,3.304-0.41014,5.6966-0.86587,7.1777-1.3672v-1.0596c-0.00002-3.2129-1.9027-4.8193-5.708-4.8193-2.0736,0.00002-3.5262,0.38739-4.3579,1.1621-0.83171,0.77475-1.4412,1.8913-1.8286,3.3496l-3.8965-0.5127c1.0254-4.8763,4.5801-7.3144,10.664-7.3144,1.709,0.00002,3.173,0.18231,4.3921,0.54687,1.2191,0.36461,2.2103,0.91148,2.9736,1.6406,0.76332,0.72919,1.2589,1.5495,1.4868,2.4609,0.22784,0.91148,0.34178,2.347,0.3418,4.3066v10.425c-0.00002,0.50131,0.0968,1.2305,0.29053,2.1875,0.19366,0.95703,0.51837,1.8457,0.97412,2.666h-4.2041c-0.41018-0.8431-0.67222-1.8229-0.78614-2.9395zm-0.34179-8.9551c-1.4128,0.56968-3.6003,1.071-6.5625,1.5039-2.3926,0.34181-3.9307,0.8545-4.6143,1.5381s-1.0254,1.5153-1.0254,2.4951c-0.00001,2.5065,1.5836,3.7598,4.751,3.7598,1.1165,0,2.1191-0.14241,3.0078-0.42725,0.88865-0.28482,1.6577-0.72346,2.3071-1.3159,0.64939-0.59245,1.1678-1.3273,1.5552-2.2046,0.38735-0.87728,0.58104-2.1704,0.58106-3.8794z"/>
   <path id="path3030" d="m177.04,197.47,0-23.687,3.623,0,0,3.5889c1.5039-2.7571,3.2129-4.1357,5.127-4.1357,1.3444,0.00002,2.7116,0.43296,4.1016,1.2988l-1.3672,3.7256c-0.97983-0.59243-1.9596-0.88865-2.9395-0.88867-1.0254,0.00002-1.8742,0.28485-2.5464,0.85449-0.67221,0.56968-1.1735,1.5039-1.5039,2.8027-0.33041,1.2988-0.49561,2.6432-0.4956,4.0332v12.407z"/>
   <path id="path3032" d="m201.03,193.88,0.58106,3.5547c-1.1393,0.22786-2.1533,0.34179-3.042,0.34179-1.2533,0-2.2958-0.18799-3.1274-0.56396-0.83171-0.37598-1.4469-0.93994-1.8457-1.6919-0.39877-0.75195-0.59815-2.4154-0.59814-4.9902v-13.638h-2.9395v-3.1104h2.9395v-5.8789l3.999-2.3926v8.2715h4.0332v3.1104h-4.0332v13.877c-0.00001,1.071,0.0683,1.7944,0.20508,2.1704,0.13671,0.37598,0.37597,0.64942,0.71777,0.82031,0.34179,0.1709,0.78613,0.25635,1.333,0.25635,0.45572,0,1.0482-0.0456,1.7773-0.13672z"/>
   <path id="path3034" d="m205.61,197.47,0-32.71,4.3408,0,0,13.433,16.987,0,0-13.433,4.3408,0,0,32.71-4.3408,0,0-15.415-16.987,0,0,15.415z"/>
   <path id="path3036" d="m236.41,185.61c0-4.1015,1.0482-7.1891,3.1445-9.2627,2.0964-2.0736,4.751-3.1103,7.9639-3.1104,2.028,0.00002,3.8509,0.41587,5.4688,1.2476,1.6178,0.83172,2.9622,2.159,4.0332,3.9819,1.0709,1.8229,1.6064,4.1016,1.6064,6.8359-0.00003,4.3522-1.0767,7.5594-3.23,9.6216s-4.7795,3.0933-7.8784,3.0933c-2.3242,0-4.3066-0.4956-5.9473-1.4868-1.6406-0.9912-2.911-2.4097-3.811-4.2554-0.90007-1.8457-1.3501-4.0674-1.3501-6.665zm4.1357,0c0,1.9369,0.29052,3.5889,0.87158,4.9561,0.58105,1.3672,1.3786,2.3983,2.3926,3.0933,1.014,0.69499,2.2502,1.0425,3.7085,1.0425,2.2558,0,3.9819-0.8317,5.1782-2.4951s1.7944-3.9079,1.7944-6.7334c-0.00001-2.7116-0.61525-4.8763-1.8457-6.4942-1.2305-1.6178-2.9395-2.4267-5.127-2.4268-2.347,0.00002-4.0959,0.86021-5.2466,2.5806s-1.7261,3.8794-1.7261,6.477z"/>
   <path id="path3038" d="m263.34,197.47,0-23.687,3.5889,0,0,3.3154c1.6634-2.5748,4.056-3.8623,7.1777-3.8623,3.4863,0.00002,5.7194,1.3786,6.6992,4.1357,1.8913-2.7571,4.3294-4.1357,7.3145-4.1357,4.899,0.00002,7.3486,2.6546,7.3486,7.9639v16.27h-3.999v-14.937c-0.00003-3.8737-1.4128-5.8105-4.2383-5.8105-3.8509,0.00002-5.7764,2.3242-5.7764,6.9726v13.774h-4.0332v-15.381c-0.00001-3.5775-1.4014-5.3662-4.2041-5.3662-1.2988,0.00002-2.3812,0.29054-3.2471,0.87158-0.86589,0.58107-1.5153,1.4526-1.9482,2.6147-0.43295,1.1621-0.64942,2.8142-0.64941,4.9561v12.305z"/>
   <path id="path3040" d="m317.72,189.85,4.1357,0.51269c-1.3672,5.1042-4.8421,7.6562-10.425,7.6562-2.3698,0-4.3921-0.48421-6.0669-1.4526-1.6748-0.96842-2.9622-2.3584-3.8623-4.1699-0.90006-1.8115-1.3501-4.0047-1.3501-6.5796,0-3.8509,0.99121-6.91,2.9736-9.1772s4.6826-3.4009,8.1006-3.4009c0.75194,0.00002,1.4697,0.057,2.1533,0.1709,0.66079,0.11395,1.2988,0.28485,1.9141,0.51269,0.61522,0.22789,1.1849,0.51272,1.709,0.85449,0.54686,0.34182,1.0482,0.72919,1.5039,1.1621,0.47849,0.47854,0.91144,1.0026,1.2988,1.5723,0.41013,0.59247,0.76332,1.2191,1.0596,1.8799,0.27341,0.66083,0.50128,1.3786,0.68359,2.1533,0.18227,0.75197,0.3076,1.5495,0.37598,2.3926,0.0228,0.25066,0.0342,1.1507,0.0342,2.7002h-17.671c0.13671,2.4837,0.84309,4.4491,2.1191,5.896s2.9622,2.1704,5.0586,2.1704c3.0078,0,5.0928-1.6178,6.2549-4.8535zm-13.193-6.4942,13.228,0c-0.18231-2.2786-0.8773-3.9819-2.085-5.1099-1.2077-1.1279-2.6774-1.6919-4.4092-1.6919-1.2761,0.00002-2.3926,0.27915-3.3496,0.8374-0.95704,0.55829-1.7375,1.3387-2.3413,2.3413-0.60385,1.0026-0.95134,2.2103-1.0425,3.623z"/>
  </g>
  <rect id="rect5004-8-1-2-3-78-9" opacity="0.465" stroke-linejoin="round" stroke-dasharray="none" stroke-opacity="0.30448" fill-opacity="0.80442" stroke-dashoffset="0" height="2.8231" width="122.13" stroke="#000" stroke-linecap="butt" stroke-miterlimit="4" y="129.68" x="160.65" stroke-width="0.16535"/>
  <g id="flowRoot4144-2-3-3-6-8-3-6-0-0-9-8-5" stroke-linejoin="round" opacity="0.46499999" style="letter-spacing:0px;word-spacing:0px;text-align:start;writing-mode:lr-tb;text-anchor:start;" font-weight="bold" stroke-opacity="0.30447759" font-family="Browallia New" fill-opacity="0.75078861" line-height="125%" transform="matrix(0.4,0,0,0.4,193.71606,-14.9168)" font-style="normal" stroke="#000" stroke-linecap="butt" stroke-miterlimit="4" font-stretch="normal" font-size="70px" font-variant="normal" stroke-dasharray="none" stroke-width="0.40000001">
   <path id="path12285-2-5" style="text-align:start;" d="m160.53,352.84,0-32.71,6.4258,0,13.398,21.841,0-21.841,6.1182,0,0,32.71-6.5967,0-13.193-21.328,0,21.328-6.1523,0z"/>
   <path id="path12287-7-0" style="text-align:start;" d="m208.62,340.81,0-5.5029,14.253,0-0.0676,7.8128-0.50598,1.6005c-1.9091,4.7009-7.6917,9.015-13.343,8.9519-5.4228-0.0606-9.6106-1.8678-12.436-5.0351-2.8255-3.1901-4.2383-7.2803-4.2383-12.271,0-5.6055,1.5723-9.7982,4.7168-12.578,3.1445-2.8027,6.984-4.2041,11.519-4.2041,7.8841,0,12.89,4.3622,14.302,10.765l-6.7411,0.15909c-1.0026-3.4636-3.6421-5.2846-7.5614-5.2846-6.2891,0-9.4336,3.623-9.4336,10.869,0,3.623,0.7344,6.6608,2.3294,8.7343,1.6178,2.0736,3.9421,3.1104,6.9727,3.1104,2.78,0,5.3172-1.6248,6.819-4.208l1.1923-2.9199z"/>
  </g>
  <path id="rect4194-0-4-9-7-3-9-5-3-5-0" opacity="0.46499999" stroke-linejoin="round" d="m270.36,103.6-14.804,8.5425,0.66188,1.147,14.146-8.1627,14.146,8.1627,0.66156-1.147-14.804-8.5425-0.004,0.006-0.004-0.006z" stroke-opacity="0.30447759" fill-opacity="0.75078861" stroke-dashoffset="0" stroke="#000" stroke-linecap="butt" stroke-miterlimit="4" stroke-dasharray="none" stroke-width="0.06740551"/>
  <path id="rect4242-6-6-4-7-4-6-2-2-7-1" opacity="0.46499999" stroke-linejoin="round" d="m264.3,104.32-1.2679,0,0,2.8504,1.2679-0.72733z" stroke-opacity="0.30447759" fill-opacity="0.75078861" stroke-dashoffset="0" stroke="#000" stroke-linecap="butt" stroke-miterlimit="4" stroke-dasharray="none" stroke-width="0.06227227"/>
 </g>
</svg>
